# Wavefront OBJ file
# Exported by Maverick Model 3D 1.3.12
# Sat Jul 03 06:33:11 2021

mtllib busstop.mtl

# 108 Vertices
v -1.828961 8.027429 -2.411813
v -1.828885 8.032322 -1.824407
v -1.784893 4.303206 -1.801538
v 7.956338 0.125871 -2.432204
v 7.827209 8.147415 -2.480295
v 7.957659 0.131292 -1.84306
v 7.962302 0.16948 2.906635
v 7.906288 4.423755 -1.870395
v 7.91218 4.46247 2.881028
v 8.424295 8.153309 -2.484323
v 8.424375 8.158204 -1.896909
v 8.468363 4.429078 -1.874046
v -2.346962 4.297884 -1.797892
v -2.425652 8.024296 -1.819959
v -2.341075 4.336591 2.953539
v -2.420073 8.065145 2.931053
v -3.03373 3.107966 0.094202
v 9.081421 3.257443 0.009737
v -3.034915 3.09502 -1.564588
v 9.07899 3.243978 -1.650788
v -1.778999 4.341913 2.949888
v -1.822987 8.071039 2.927024
v 8.473933 4.469926 2.87697
v 8.430261 8.19691 2.854521
v 7.827289 8.15231 -1.89288
v 7.833176 8.191017 2.85855
v -1.737698 0.293246 -1.90054
v -1.828182 7.960244 -1.9289
v -2.29946 0.28579 -1.896476
v -2.390252 7.95492 -1.925258
v -2.299368 0.282057 -2.255483
v -2.390166 7.951189 -2.284255
v -1.738134 0.290117 -2.267725
v -1.828413 7.958645 -2.288313
v -1.701878 0.681161 2.540307
v -1.742294 0.641139 -2.367162
v -2.300228 0.674651 2.553818
v -2.303541 0.633078 -2.354921
v -1.739481 3.916749 2.521246
v -1.779903 3.876734 -2.386231
v -2.337838 3.910236 2.534747
v -2.341465 3.870807 -2.374402
v -1.695262 0.048074 2.535538
v -2.257016 0.040618 2.539596
v -2.295589 0.005412 -1.770556
v -2.290954 0.0436 2.979145
v 8.516798 0.419644 -1.971317
v 8.424756 8.088256 -2.001825
v 7.955046 0.412179 -1.967257
v 7.862996 8.0808 -1.997762
v 7.953573 0.410071 -2.328404
v 7.863089 8.077069 -2.356764
v 8.515127 0.415998 -2.340227
v 8.424842 8.084525 -2.360822
v 7.954279 0.80104 2.483037
v 8.552622 0.80755 2.469533
v 7.949398 0.76109 -2.427846
v 8.510962 0.767019 -2.439672
v 7.915418 4.036116 2.462238
v 8.513452 4.044762 2.44833
v 7.911789 3.996685 -2.446915
v 8.473351 4.002613 -2.458744
v 7.962479 0.166446 2.469206
v 8.55925 0.174474 2.464766
v -3.029662 2.756213 0.096246
v 9.085488 2.90569 0.011781
v 9.083057 2.892233 -1.648746
v -3.030848 2.743266 -1.562544
v -3.090146 7.736378 -1.69095
v 9.025004 7.885852 -1.77543
v -3.07007 6.048559 -1.687864
v 9.043828 6.197517 -1.774059
v -3.066701 5.69598 -1.712974
v 9.048442 5.845453 -1.797449
v -3.046626 4.008258 -1.721087
v 9.068532 4.157735 -1.805557
v -3.026189 2.845841 2.361184
v -3.030191 3.125116 2.358496
v -3.029893 2.831759 0.710145
v -3.032959 3.113687 0.708775
v 9.085266 2.981236 0.625674
v 9.0822 3.263164 0.624303
v 9.087711 2.994799 2.274989
v 9.08496 3.274593 2.274031
v -2.426044 8.021536 -2.407782
v -2.296919 0.0 -2.359696
v -1.700151 0.008026 -2.364139
v -1.698818 0.01344 -1.774996
v -1.694183 0.051628 2.974705
v 8.560324 0.178026 2.903924
v 8.554438 0.13932 -1.847506
v 8.554359 0.134416 -2.434918
v -5.180605 20.722425 1.276036
v -9.087711 13.72645 2.996981
v -1.502003 13.835563 3.16573
v -4.727106 13.878435 -3.16573
v -7.203006 5.44888 0.72929
v -5.728414 11.304997 0.912341
v -6.297076 11.78251 0.915528
v -6.71378 5.449876 0.067922
v -6.120953 11.497372 0.276262
v -6.145271 4.902557 0.722144
v -7.245575 0.108992 1.188912
v -6.791373 0.109319 0.53913
v -6.087052 0.124485 1.180412
v -4.997138 17.351579 1.057045
v -4.503589 17.362516 1.673495
v -5.275224 17.353081 1.698845

# 279 Texture Coordinates
vt 0.003906 0.650391
vt 0.069336 0.650391
vt 0.069336 0.359375
vt 0.003906 0.013672
vt 0.003906 0.650391
vt 0.083008 0.013672
vt 0.694336 0.013672
vt 0.069336 0.359375
vt 0.694336 0.359375
vt 0.003906 0.650391
vt 0.069336 0.650391
vt 0.069336 0.359375
vt 0.182617 0.09375
vt 0.182617 0.237305
vt 0.484375 0.09375
vt 0.484375 0.09375
vt 0.182617 0.237305
vt 0.484375 0.237305
vt 0.996094 2.063477
vt 0.996094 -1.075195
vt 0.735352 2.063477
vt 0.735352 2.063477
vt 0.996094 -1.075195
vt 0.735352 -1.075195
vt 0.182617 0.09375
vt 0.182617 0.237305
vt 0.484375 0.09375
vt 0.484375 0.09375
vt 0.182617 0.237305
vt 0.484375 0.237305
vt 0.182617 0.09375
vt 0.182617 0.237305
vt 0.484375 0.09375
vt 0.484375 0.09375
vt 0.182617 0.237305
vt 0.484375 0.237305
vt 0.182617 0.09375
vt 0.182617 0.237305
vt 0.484375 0.09375
vt 0.484375 0.09375
vt 0.182617 0.237305
vt 0.484375 0.237305
vt 0.103516 0.28418
vt 0.103516 0.353516
vt 0.541992 0.28418
vt 0.541992 0.28418
vt 0.103516 0.353516
vt 0.541992 0.353516
vt 0.541992 0.28418
vt 0.541992 0.353516
vt 0.103516 0.28418
vt 0.103516 0.28418
vt 0.541992 0.353516
vt 0.103516 0.353516
vt 0.538086 0.352539
vt 0.107422 0.352539
vt 0.538086 0.286133
vt 0.538086 0.286133
vt 0.107422 0.352539
vt 0.107422 0.286133
vt 0.538086 0.352539
vt 0.107422 0.352539
vt 0.538086 0.286133
vt 0.538086 0.286133
vt 0.107422 0.352539
vt 0.107422 0.286133
vt 0.105469 0.351562
vt 0.540039 0.351562
vt 0.105469 0.282227
vt 0.105469 0.282227
vt 0.540039 0.351562
vt 0.540039 0.282227
vt 0.083008 0.013672
vt 0.069336 0.359375
vt 0.694336 0.013672
vt 0.694336 0.013672
vt 0.069336 0.359375
vt 0.694336 0.359375
vt 0.103516 0.28418
vt 0.103516 0.353516
vt 0.541992 0.28418
vt 0.541992 0.28418
vt 0.103516 0.353516
vt 0.541992 0.353516
vt 0.541992 0.28418
vt 0.541992 0.353516
vt 0.103516 0.28418
vt 0.103516 0.28418
vt 0.541992 0.353516
vt 0.103516 0.353516
vt 0.538086 0.286133
vt 0.538086 0.352539
vt 0.107422 0.286133
vt 0.107422 0.286133
vt 0.538086 0.352539
vt 0.107422 0.352539
vt 0.538086 0.286133
vt 0.538086 0.352539
vt 0.107422 0.286133
vt 0.107422 0.286133
vt 0.538086 0.352539
vt 0.107422 0.352539
vt 0.105469 0.282227
vt 0.105469 0.351562
vt 0.540039 0.282227
vt 0.540039 0.282227
vt 0.105469 0.351562
vt 0.540039 0.351562
vt 0.987305 0.99707
vt 0.987305 -0.157227
vt 0.730469 0.99707
vt 0.730469 0.99707
vt 0.987305 -0.157227
vt 0.730469 -0.157227
vt 0.96875 0.998047
vt 0.96875 -0.001953
vt 0.740234 0.998047
vt 0.740234 0.998047
vt 0.96875 -0.001953
vt 0.740234 -0.001953
vt 0.740234 -0.001953
vt 0.740234 0.998047
vt 0.96875 -0.001953
vt 0.96875 -0.001953
vt 0.740234 0.998047
vt 0.96875 0.998047
vt 0.982422 -1.657227
vt 0.982422 2.657227
vt 0.755859 -1.657227
vt 0.755859 -1.657227
vt 0.982422 2.657227
vt 0.755859 2.657227
vt 0.980469 1.259766
vt 0.980469 -0.259766
vt 0.731445 1.259766
vt 0.731445 1.259766
vt 0.980469 -0.259766
vt 0.731445 -0.259766
vt 0.711914 -1.304688
vt 0.711914 3.061523
vt 0.974609 -1.304688
vt 0.974609 -1.304688
vt 0.711914 3.061523
vt 0.974609 3.061523
vt 0.72168 -1.044922
vt 0.72168 2.044922
vt 0.981445 -1.044922
vt 0.981445 -1.044922
vt 0.72168 2.044922
vt 0.981445 2.044922
vt 0.976562 -0.001953
vt 0.740234 -0.001953
vt 0.976562 0.998047
vt 0.976562 0.998047
vt 0.740234 -0.001953
vt 0.740234 0.998047
vt 0.976562 -0.001953
vt 0.740234 -0.001953
vt 0.976562 0.998047
vt 0.976562 0.998047
vt 0.740234 -0.001953
vt 0.740234 0.998047
vt 0.995117 0.99707
vt 0.995117 -0.157227
vt 0.730469 0.99707
vt 0.730469 0.99707
vt 0.995117 -0.157227
vt 0.730469 -0.157227
vt 0.696289 -0.279297
vt 0.696289 1.279297
vt 0.989258 -0.279297
vt 0.989258 -0.279297
vt 0.696289 1.279297
vt 0.989258 1.279297
vt 0.069336 0.650391
vt 0.069336 0.359375
vt 0.003906 0.650391
vt 0.003906 0.650391
vt 0.069336 0.359375
vt 0.083008 0.013672
vt 0.003906 0.650391
vt 0.083008 0.013672
vt 0.003906 0.013672
vt 0.694336 0.013672
vt 0.083008 0.013672
vt 0.069336 0.359375
vt 0.069336 0.359375
vt 0.083008 0.013672
vt 0.003906 0.650391
vt 0.069336 0.359375
vt 0.003906 0.650391
vt 0.069336 0.650391
vt 0.003906 0.013672
vt 0.003906 0.650391
vt 0.083008 0.013672
vt 0.083008 0.013672
vt 0.003906 0.650391
vt 0.069336 0.359375
vt 0.083008 0.013672
vt 0.069336 0.359375
vt 0.694336 0.013672
vt 0.694336 0.013672
vt 0.069336 0.359375
vt 0.694336 0.359375
vt 0.694336 0.359375
vt 0.694336 0.013672
vt 0.069336 0.359375
vt 0.069336 0.359375
vt 0.694336 0.013672
vt 0.083008 0.013672
vt 0.069336 0.359375
vt 0.083008 0.013672
vt 0.003906 0.650391
vt 0.003906 0.650391
vt 0.083008 0.013672
vt 0.003906 0.013672
vt 0.412109 0.967773
vt 0.68457 0.419922
vt 0.095703 0.412109
vt 0.09668 0.413086
vt 0.415039 0.972656
vt 0.68457 0.419922
vt 0.683594 0.418945
vt 0.095703 0.412109
vt 0.415039 0.97168
vt 0.695312 0.628906
vt 0.722656 -0.399414
vt 0.695312 -0.474609
vt 0.694336 -0.374023
vt 0.694336 0.625977
vt 0.727539 -0.374023
vt 0.727539 -0.374023
vt 0.694336 0.625977
vt 0.727539 0.625977
vt 0.727539 0.625977
vt 0.727539 -0.374023
vt 0.694336 0.625977
vt 0.694336 0.625977
vt 0.727539 -0.374023
vt 0.694336 -0.374023
vt 0.694336 -0.374023
vt 0.694336 0.625977
vt 0.727539 -0.374023
vt 0.727539 -0.374023
vt 0.694336 0.625977
vt 0.727539 0.625977
vt 0.727539 0.625977
vt 0.727539 -0.374023
vt 0.694336 0.625977
vt 0.694336 0.625977
vt 0.727539 -0.374023
vt 0.694336 -0.374023
vt 0.727539 0.625977
vt 0.727539 -0.374023
vt 0.694336 0.625977
vt 0.694336 0.625977
vt 0.727539 -0.374023
vt 0.694336 -0.374023
vt 0.722656 0.600586
vt 0.722656 -0.464844
vt 0.695312 0.525391
vt 0.695312 0.525391
vt 0.722656 -0.464844
vt 0.695312 -0.44043
vt 0.694336 -0.374023
vt 0.694336 0.625977
vt 0.727539 -0.374023
vt 0.727539 -0.374023
vt 0.694336 0.625977
vt 0.727539 0.625977
vt 0.722656 -0.399414
vt 0.695312 0.628906
vt 0.722656 0.69043
vt 0.722656 0.69043
vt 0.695312 0.628906
vt 0.695312 1.526367
vt 0.722656 0.69043
vt 0.695312 1.526367
vt 0.722656 1.494141

# 279 Vertex Normals
vn 0.999735 0.016071 0.016503
vn 0.99993 0.01179 -0.000967
vn 0.999813 0.016754 0.009608
vn 0.999868 0.016081 -0.00239
vn 0.999657 0.016284 -0.020501
vn 0.999697 0.013209 -0.020754
vn 0.999929 0.011813 -0.001204
vn 0.9998 0.015515 -0.012585
vn 0.999837 0.018006 -0.001386
vn 0.999722 0.016127 0.017213
vn 0.99993 0.011763 -0.000947
vn 0.999813 0.016825 0.009576
vn 0.9998 0.015486 -0.012676
vn 0.999776 0.021129 -0.001178
vn 0.999837 0.017982 -0.001367
vn 0.999837 0.017982 -0.001367
vn 0.999776 0.021129 -0.001178
vn 0.999775 0.021174 -0.001356
vn -0.012391 0.999893 -0.007795
vn -0.012372 0.999892 -0.007943
vn -0.012372 0.999892 -0.007943
vn -0.012372 0.999892 -0.007943
vn -0.012372 0.999892 -0.007943
vn -0.012353 0.999891 -0.00809
vn 0.999813 0.016754 0.009608
vn 0.99993 0.01179 -0.000967
vn 0.999895 0.014444 -0.001358
vn 0.999895 0.014444 -0.001358
vn 0.99993 0.01179 -0.000967
vn 0.99993 0.011787 -0.001337
vn 0.999813 0.016825 0.009576
vn 0.99993 0.011763 -0.000947
vn 0.999893 0.014538 -0.001317
vn 0.999893 0.014538 -0.001317
vn 0.99993 0.011763 -0.000947
vn 0.999931 0.011709 -0.001334
vn 0.9998 0.015515 -0.012585
vn 0.999775 0.021177 -0.001045
vn 0.999837 0.018006 -0.001386
vn 0.999837 0.018006 -0.001386
vn 0.999775 0.021177 -0.001045
vn 0.999775 0.021176 -0.001411
vn 0.007184 0.003784 0.999967
vn 0.006814 0.003806 0.99997
vn 0.006814 0.003806 0.99997
vn 0.006814 0.003806 0.99997
vn 0.006814 0.003806 0.99997
vn 0.006444 0.003829 0.999972
vn -0.021751 -0.004008 -0.999755
vn -0.014469 -0.003389 -0.99989
vn -0.014469 -0.003389 -0.99989
vn -0.014469 -0.003389 -0.99989
vn -0.014469 -0.003389 -0.99989
vn -0.007187 -0.002769 -0.99997
vn -0.01106 0.999906 -0.008063
vn -0.012802 0.999884 -0.008261
vn -0.012802 0.999884 -0.008261
vn -0.012802 0.999884 -0.008261
vn -0.012802 0.999884 -0.008261
vn -0.014545 0.999858 -0.008458
vn -0.011064 0.999906 -0.008062
vn -0.010894 0.999908 -0.008043
vn -0.010894 0.999908 -0.008043
vn -0.010894 0.999908 -0.008043
vn -0.010894 0.999908 -0.008043
vn -0.010723 0.99991 -0.008023
vn 0.007174 0.003776 0.999967
vn 0.014857 0.00275 0.999886
vn 0.014857 0.00275 0.999886
vn 0.014857 0.00275 0.999886
vn 0.014857 0.00275 0.999886
vn 0.02254 0.001724 0.999744
vn 0.999697 0.013209 -0.02076
vn 0.9998 0.015486 -0.012676
vn 0.999929 0.011813 -0.001203
vn 0.999929 0.011813 -0.001203
vn 0.9998 0.015486 -0.012676
vn 0.999837 0.017982 -0.001367
vn 0.007173 0.004064 0.999966
vn 0.007176 0.004064 0.999966
vn 0.007176 0.004064 0.999966
vn 0.007176 0.004064 0.999966
vn 0.007176 0.004064 0.999966
vn 0.007179 0.004064 0.999966
vn -0.021008 -0.003946 -0.999772
vn -0.014098 -0.003358 -0.999895
vn -0.014098 -0.003358 -0.999895
vn -0.014098 -0.003358 -0.999895
vn -0.014098 -0.003358 -0.999895
vn -0.007187 -0.00277 -0.99997
vn -0.011062 0.999906 -0.008123
vn -0.010895 0.999907 -0.008144
vn -0.010895 0.999907 -0.008144
vn -0.010895 0.999907 -0.008144
vn -0.010895 0.999907 -0.008144
vn -0.010728 0.999909 -0.008164
vn -0.014642 0.999861 -0.00802
vn -0.012688 0.999885 -0.008261
vn -0.012688 0.999885 -0.008261
vn -0.012688 0.999885 -0.008261
vn -0.012688 0.999885 -0.008261
vn -0.010733 0.999906 -0.008501
vn 0.007414 0.001891 0.999971
vn 0.015299 0.003205 0.999878
vn 0.015299 0.003205 0.999878
vn 0.015299 0.003205 0.999878
vn 0.015299 0.003205 0.999878
vn 0.023183 0.00452 0.999721
vn 0.006899 0.00589 0.999959
vn 0.006899 0.00589 0.999959
vn 0.006899 0.00589 0.999959
vn 0.006899 0.00589 0.999959
vn 0.006899 0.00589 0.999959
vn 0.006899 0.00589 0.999959
vn 0.999932 0.011553 -0.001558
vn 0.999932 0.011552 -0.001558
vn 0.999932 0.011552 -0.001558
vn 0.999932 0.011552 -0.001558
vn 0.999932 0.011552 -0.001558
vn 0.999932 0.011551 -0.001558
vn -0.999933 -0.011558 0.000805
vn -0.999933 -0.011558 0.000805
vn -0.999933 -0.011558 0.000805
vn -0.999933 -0.011558 0.000805
vn -0.999933 -0.011558 0.000805
vn -0.999933 -0.011558 0.000805
vn -0.006949 -0.001911 -0.999974
vn -0.007027 -0.001401 -0.999974
vn -0.007027 -0.001401 -0.999974
vn -0.007027 -0.001401 -0.999974
vn -0.007027 -0.001401 -0.999974
vn -0.007104 -0.000891 -0.999974
vn -0.007031 0.004724 -0.999964
vn -0.007031 0.004722 -0.999964
vn -0.007031 0.004722 -0.999964
vn -0.007031 0.004722 -0.999964
vn -0.007031 0.004722 -0.999964
vn -0.00703 0.004721 -0.999964
vn 0.00703 -0.004724 0.999964
vn 0.007031 -0.004722 0.999964
vn 0.007031 -0.004722 0.999964
vn 0.007031 -0.004722 0.999964
vn 0.007031 -0.004722 0.999964
vn 0.007031 -0.00472 0.999964
vn 0.007092 0.001912 0.999973
vn 0.007027 0.001401 0.999974
vn 0.007027 0.001401 0.999974
vn 0.007027 0.001401 0.999974
vn 0.007027 0.001401 0.999974
vn 0.006962 0.00089 0.999975
vn -0.999895 -0.014308 0.002365
vn -0.999919 -0.012586 0.002059
vn -0.999919 -0.012586 0.002059
vn -0.999919 -0.012586 0.002059
vn -0.999919 -0.012586 0.002059
vn -0.999939 -0.010864 0.001752
vn 0.99994 0.010867 -0.001571
vn 0.999945 0.010345 -0.001656
vn 0.999945 0.010345 -0.001656
vn 0.999945 0.010345 -0.001656
vn 0.999945 0.010345 -0.001656
vn 0.99995 0.009824 -0.001741
vn 0.006995 0.009725 0.999928
vn 0.006962 0.006609 0.999954
vn 0.006962 0.006609 0.999954
vn 0.006962 0.006609 0.999954
vn 0.006962 0.006609 0.999954
vn 0.006929 0.003494 0.99997
vn -0.012385 0.999899 -0.006906
vn -0.012385 0.999899 -0.006906
vn -0.012385 0.999899 -0.006906
vn -0.012385 0.999899 -0.006906
vn -0.012385 0.999899 -0.006906
vn -0.012385 0.999899 -0.006906
vn 0.999776 0.021129 -0.001178
vn 0.9998 0.015486 -0.012676
vn 0.999654 0.01626 -0.020658
vn 0.999654 0.01626 -0.020658
vn 0.9998 0.015486 -0.012676
vn 0.999697 0.013209 -0.02076
vn 0.999654 0.01626 -0.020658
vn 0.999697 0.013209 -0.02076
vn 0.999868 0.016081 -0.002406
vn 0.999929 0.011813 -0.001204
vn 0.999697 0.013209 -0.020754
vn 0.9998 0.015515 -0.012585
vn 0.9998 0.015515 -0.012585
vn 0.999697 0.013209 -0.020754
vn 0.999657 0.016284 -0.020501
vn 0.9998 0.015515 -0.012585
vn 0.999657 0.016284 -0.020501
vn 0.999775 0.021177 -0.001045
vn 0.999868 0.016046 -0.002409
vn 0.999735 0.016071 0.016503
vn 0.999692 0.018825 0.016199
vn 0.999692 0.018825 0.016199
vn 0.999735 0.016071 0.016503
vn 0.999813 0.016754 0.009608
vn 0.999692 0.018825 0.016199
vn 0.999813 0.016754 0.009608
vn 0.999801 0.019906 -0.001269
vn 0.999801 0.019906 -0.001269
vn 0.999813 0.016754 0.009608
vn 0.999895 0.014444 -0.001358
vn 0.999893 0.014538 -0.001317
vn 0.999797 0.020084 -0.001373
vn 0.999813 0.016825 0.009576
vn 0.999813 0.016825 0.009576
vn 0.999797 0.020084 -0.001373
vn 0.99968 0.018881 0.016824
vn 0.999813 0.016825 0.009576
vn 0.99968 0.018881 0.016824
vn 0.999722 0.016127 0.017213
vn 0.999722 0.016127 0.017213
vn 0.99968 0.018881 0.016824
vn 0.999868 0.016216 -0.000268
vn -0.025145 0.252014 0.967397
vn -0.025145 0.252014 0.967397
vn -0.025145 0.252014 0.967397
vn 0.841299 0.332408 -0.426288
vn 0.841299 0.332408 -0.426288
vn 0.841299 0.332408 -0.426288
vn -0.78162 0.302305 -0.545602
vn -0.78162 0.302305 -0.545602
vn -0.78162 0.302305 -0.545602
vn 0.008488 0.009731 0.999917
vn -0.036695 -0.054562 0.997836
vn -0.022513 -0.093441 0.99537
vn -0.809164 0.016001 -0.587365
vn -0.895044 0.151981 -0.419282
vn -0.861188 0.065574 -0.504039
vn -0.861188 0.065574 -0.504039
vn -0.895044 0.151981 -0.419282
vn -0.919659 0.181407 -0.348309
vn 0.7124 -0.059968 -0.699207
vn 0.807666 -0.058815 -0.586699
vn 0.772378 -0.048245 -0.633328
vn 0.772378 -0.048245 -0.633328
vn 0.807666 -0.058815 -0.586699
vn 0.821001 -0.068952 -0.566747
vn -0.818855 -0.042741 -0.572407
vn -0.809164 0.016001 -0.587365
vn -0.811127 -0.041755 -0.583377
vn -0.811127 -0.041755 -0.583377
vn -0.809164 0.016001 -0.587365
vn -0.861188 0.065574 -0.504039
vn 0.672238 -0.074754 -0.736552
vn 0.7124 -0.059968 -0.699207
vn 0.701581 -0.065662 -0.709558
vn 0.701581 -0.065662 -0.709558
vn 0.7124 -0.059968 -0.699207
vn 0.772378 -0.048245 -0.633328
vn 0.807666 -0.058815 -0.586699
vn 0.808189 -0.083792 -0.582932
vn 0.821001 -0.068952 -0.566747
vn 0.821001 -0.068952 -0.566747
vn 0.808189 -0.083792 -0.582932
vn 0.778856 -0.079306 -0.622169
vn -0.036695 -0.054562 0.997836
vn -0.025221 -0.126593 0.991634
vn -0.022513 -0.093441 0.99537
vn -0.022513 -0.093441 0.99537
vn -0.025221 -0.126593 0.991634
vn 0.034262 -0.145326 0.98879
vn -0.895044 0.151981 -0.419282
vn -0.903463 0.219881 -0.367976
vn -0.919659 0.181407 -0.348309
vn -0.919659 0.181407 -0.348309
vn -0.903463 0.219881 -0.367976
vn -0.894189 0.223399 -0.387967
vn -0.036695 -0.054562 0.997836
vn 0.008488 0.009731 0.999917
vn 0.016189 0.050642 0.998586
vn 0.016189 0.050642 0.998586
vn 0.008488 0.009731 0.999917
vn 0.028396 0.090418 0.995499
vn 0.016189 0.050642 0.998586
vn 0.028396 0.090418 0.995499
vn 0.006026 0.095544 0.995407

# , 93 grouped triangles

usemtl NDS_Material.050
o 
g 

f 1/1/1 2/2/2 3/3/3
f 4/4/4 5/5/5 6/6/6
f 7/7/7 8/8/8 9/9/9
f 10/10/10 11/11/11 12/12/12
f 13/13/13 14/14/14 15/15/15
f 15/16/16 14/17/17 16/18/18
f 17/19/19 18/20/20 19/21/21
f 19/22/22 18/23/23 20/24/24
f 3/25/25 2/26/26 21/27/27
f 21/28/28 2/29/29 22/30/30
f 12/31/31 11/32/32 23/33/33
f 23/34/34 11/35/35 24/36/36
f 8/37/37 25/38/38 9/39/39
f 9/40/40 25/41/41 26/42/42
f 27/43/43 28/44/44 29/45/45
f 29/46/46 28/47/47 30/48/48
f 31/49/49 32/50/50 33/51/51
f 33/52/52 32/53/53 34/54/54
f 35/55/55 36/56/56 37/57/57
f 37/58/58 36/59/59 38/60/60
f 39/61/61 40/62/62 41/63/63
f 41/64/64 40/65/65 42/66/66
f 43/67/67 39/68/68 44/69/69
f 44/70/70 39/71/71 41/72/72
f 45/73/73 13/74/74 46/75/75
f 46/76/76 13/77/77 15/78/78
f 47/79/79 48/80/80 49/81/81
f 49/82/82 48/83/83 50/84/84
f 51/85/85 52/86/86 53/87/87
f 53/88/88 52/89/89 54/90/90
f 55/91/91 56/92/92 57/93/93
f 57/94/94 56/95/95 58/96/96
f 59/97/97 60/98/98 61/99/99
f 61/100/100 60/101/101 62/102/102
f 63/103/103 64/104/104 59/105/105
f 59/106/106 64/107/107 60/108/108
f 65/109/109 66/110/110 17/111/111
f 17/112/112 66/113/113 18/114/114
f 66/115/115 67/116/116 18/117/117
f 18/118/118 67/119/119 20/120/120
f 17/121/121 19/122/122 65/123/123
f 65/124/124 19/125/125 68/126/126
f 69/127/127 70/128/128 71/129/129
f 71/130/130 70/131/131 72/132/132
f 73/133/133 74/134/134 75/135/135
f 75/136/136 74/137/137 76/138/138
f 75/139/139 76/140/140 73/141/141
f 73/142/142 76/143/143 74/144/144
f 71/145/145 72/146/146 69/147/147
f 69/148/148 72/149/149 70/150/150
f 77/151/151 78/152/152 79/153/153
f 79/154/154 78/155/155 80/156/156
f 81/157/157 82/158/158 83/159/159
f 83/160/160 82/161/161 84/162/162
f 77/163/163 83/164/164 78/165/165
f 78/166/166 83/167/167 84/168/168
f 78/169/169 84/170/170 80/171/171
f 80/172/172 84/173/173 82/174/174
f 14/175/175 13/176/176 85/177/177
f 85/178/178 13/179/179 45/180/180
f 85/181/181 45/182/182 86/183/183
f 7/184/184 6/185/185 8/186/186
f 8/187/187 6/188/188 5/189/189
f 8/190/190 5/191/191 25/192/192
f 87/193/193 1/194/194 88/195/195
f 88/196/196 1/197/197 3/198/198
f 88/199/199 3/200/200 89/201/201
f 89/202/202 3/203/203 21/204/204
f 23/205/205 90/206/206 12/207/207
f 12/208/208 90/209/209 91/210/210
f 12/211/211 91/212/212 10/213/213
f 10/214/214 91/215/215 92/216/216
f 93/217/217 94/218/218 95/219/219
f 96/220/220 93/221/221 95/222/222
f 96/223/223 94/224/224 93/225/225
f 97/226/226 98/227/227 99/228/228
f 97/229/229 99/230/230 100/231/231
f 100/232/232 99/233/233 101/234/234
f 100/235/235 101/236/236 102/237/237
f 102/238/238 101/239/239 98/240/240
f 103/241/241 97/242/242 104/243/243
f 104/244/244 97/245/245 100/246/246
f 104/247/247 100/248/248 105/249/249
f 105/250/250 100/251/251 102/252/252
f 101/253/253 106/254/254 98/255/255
f 98/256/256 106/257/257 107/258/258
f 98/259/259 107/260/260 99/261/261
f 99/262/262 107/263/263 108/264/264
f 99/265/265 108/266/266 101/267/267
f 101/268/268 108/269/269 106/270/270
f 98/271/271 97/272/272 102/273/273
f 102/274/274 97/275/275 103/276/276
f 102/277/277 103/278/278 105/279/279
