# Blender v2.82 (sub 7) OBJ File: ''
# www.blender.org
mtllib Health.mtl
o mesh0_mesh0_mesh0000
v 0.167750 0.241785 -0.001874
v 0.144321 0.224448 -0.066538
v 0.126984 0.304574 -0.001874
v 0.103087 0.265214 -0.076378
v 0.067943 0.224448 -0.089966
v 0.059509 0.326128 -0.001874
v 0.000000 0.116207 -0.086686
v -0.001406 0.223042 -0.088092
v -0.000469 0.272242 -0.073098
v -0.000469 0.287705 -0.001874
v 0.167750 0.241785 -0.001874
v 0.126984 0.304574 -0.001874
v 0.145258 0.224447 0.055760
v 0.103087 0.265214 0.071692
v 0.059509 0.326128 -0.001874
v 0.071692 0.224447 0.096058
v -0.000469 0.272242 0.069818
v -0.001406 0.223042 0.090435
v 0.000000 0.116207 0.089029
v 0.151350 0.139635 -0.001874
v 0.079658 0.104024 0.068412
v 0.091841 0.044983 -0.002343
v -0.000469 0.044515 0.056229
v -0.000469 0.001406 -0.001874
v 0.144321 0.224448 -0.066538
v 0.151350 0.139635 -0.001874
v 0.079658 0.104024 -0.072629
v 0.091841 0.044983 -0.002343
v -0.000469 0.044515 -0.059509
v -0.000469 0.001406 -0.001874
v -0.146195 0.223979 -0.068881
v -0.169156 0.241316 -0.001874
v -0.126515 0.307385 -0.001874
v -0.069349 0.223979 -0.089966
v -0.105898 0.265214 -0.076378
v -0.053418 0.323317 -0.001874
v -0.000469 0.287705 -0.001874
v -0.146664 0.223979 0.055760
v -0.105898 0.265214 0.071692
v -0.105898 0.265214 0.071692
v -0.126515 0.307385 -0.001874
v -0.146664 0.223979 0.055760
v -0.072629 0.223979 0.096058
v -0.053418 0.323317 -0.001874
v -0.169156 0.241316 -0.001874
v -0.152755 0.139167 -0.001874
v -0.081063 0.103555 0.068412
v -0.093246 0.044515 -0.002343
v -0.146195 0.223979 -0.068881
v -0.081063 0.103555 -0.072629
v -0.093246 0.044515 -0.002343
v -0.081063 0.103555 -0.072629
v -0.093246 0.044515 -0.002343
vt 0.000000 0.742012
vt 0.068730 0.688223
vt 0.120527 0.934258
vt 0.191250 0.813730
vt 0.293848 0.688223
vt 0.319746 1.000000
vt 0.496055 0.355527
vt 0.500039 0.684238
vt 0.498047 0.835644
vt 0.498047 0.882461
vt 0.996094 0.742012
vt 0.875566 0.934258
vt 0.930352 0.688223
vt 0.804844 0.813730
vt 0.676348 1.000000
vt 0.711211 0.688223
vt 0.498047 0.835644
vt 0.496055 0.684238
vt 0.500039 0.355527
vt 0.948281 0.428242
vt 0.736113 0.319668
vt 0.771973 0.138379
vt 0.498047 0.137383
vt 0.498047 0.003906
vt 0.927363 0.688223
vt 0.047813 0.428242
vt 0.259981 0.319668
vt 0.224121 0.138379
vt 0.498047 0.137383
vt 0.498047 0.003906
vt 0.928359 0.687227
vt 0.996094 0.741016
vt 0.870586 0.943223
vt 0.702246 0.687227
vt 0.808828 0.812734
vt 0.653438 0.991035
vt 0.498047 0.882461
vt 0.930352 0.687227
vt 0.808828 0.812734
vt 0.187266 0.812734
vt 0.125508 0.943223
vt 0.065742 0.687227
vt 0.284883 0.687227
vt 0.342656 0.991035
vt 0.000000 0.741016
vt 0.047813 0.427246
vt 0.259981 0.318672
vt 0.224121 0.136387
vt 0.067734 0.687227
vt 0.259981 0.318672
vt 0.224121 0.136387
vt 0.736113 0.318672
vt 0.771973 0.136387
vn 0.9799 0.1990 0.0120
vn 0.7041 0.0920 -0.7041
vn 0.6780 0.7350 0.0050
vn 0.2739 0.5588 -0.7828
vn 0.1140 0.0710 -0.9909
vn -0.0960 0.9954 0.0000
vn 0.0013 -0.1660 -0.9861
vn -0.0000 0.1389 -0.9903
vn 0.0020 0.6358 -0.7718
vn -0.5368 0.8437 -0.0010
vn 0.7481 0.0930 0.6571
vn 0.3207 0.6006 0.7324
vn 0.1809 0.1160 0.9766
vn 0.0020 0.6965 0.7175
vn 0.0000 0.1900 0.9818
vn 0.0020 -0.2149 0.9766
vn 0.9287 -0.3709 0.0050
vn 0.4790 -0.3970 0.7829
vn 0.5047 -0.6406 0.5787
vn 0.0020 -0.6591 0.7521
vn 0.0020 -0.8013 0.5983
vn 0.4330 -0.3740 -0.8201
vn 0.5030 -0.6399 -0.5809
vn 0.0020 -0.6397 -0.7686
vn 0.0020 -0.7983 -0.6022
vn -0.7019 0.0950 -0.7059
vn -0.9802 0.1970 0.0210
vn -0.6590 0.7521 0.0070
vn -0.1040 0.0740 -0.9918
vn -0.2491 0.5711 -0.7822
vn 0.1350 0.9908 0.0000
vn 0.5598 0.8287 -0.0010
vn -0.7498 0.0880 0.6558
vn -0.3090 0.6060 0.7330
vn -0.6591 0.7521 0.0070
vn -0.1810 0.1130 0.9770
vn -0.9278 -0.3729 0.0100
vn -0.4770 -0.3970 0.7841
vn -0.5029 -0.6409 0.5799
vn -0.4270 -0.3770 -0.8219
vn -0.5009 -0.6408 -0.5818
usemtl health
s 1
f 1/1/1 2/2/2 3/3/3
f 2/2/2 4/4/4 3/3/3
f 2/2/2 5/5/5 4/4/4
f 3/3/3 4/4/4 6/6/6
f 5/5/5 7/7/7 8/8/8
f 9/9/9 5/5/5 8/8/8
f 4/4/4 9/9/9 6/6/6
f 4/4/4 5/5/5 9/9/9
f 6/6/6 9/9/9 10/10/10
f 11/11/1 12/12/3 13/13/11
f 12/12/3 14/14/12 13/13/11
f 12/12/3 15/15/6 14/14/12
f 13/13/11 14/14/12 16/16/13
f 15/15/6 17/17/14 14/14/12
f 16/16/13 14/14/12 17/17/14
f 15/15/6 10/10/10 17/17/14
f 16/16/13 17/17/14 18/18/15
f 16/16/13 18/18/15 19/19/16
f 11/11/1 13/13/11 20/20/17
f 13/13/11 21/21/18 20/20/17
f 19/19/16 21/21/18 16/16/13
f 13/13/11 16/16/13 21/21/18
f 20/20/17 21/21/18 22/22/19
f 21/21/18 23/23/20 22/22/19
f 21/21/18 19/19/16 23/23/20
f 22/22/19 23/23/20 24/24/21
f 11/11/1 20/20/17 25/25/2
f 26/26/17 27/27/22 2/2/2
f 2/2/2 27/27/22 5/5/5
f 27/27/22 7/7/7 5/5/5
f 26/26/17 28/28/23 27/27/22
f 27/27/22 29/29/24 7/7/7
f 28/28/23 29/29/24 27/27/22
f 28/28/23 30/30/25 29/29/24
f 31/31/26 32/32/27 33/33/28
f 7/7/7 34/34/29 8/8/8
f 34/34/29 9/9/9 8/8/8
f 34/34/29 31/31/26 35/35/30
f 35/35/30 31/31/26 33/33/28
f 34/34/29 35/35/30 9/9/9
f 9/9/9 35/35/30 36/36/31
f 35/35/30 33/33/28 36/36/31
f 9/9/9 36/36/31 37/37/32
f 33/33/28 32/32/27 38/38/33
f 36/36/31 33/33/28 39/39/34
f 40/40/34 41/41/35 42/42/33
f 40/40/34 42/42/33 43/43/36
f 18/18/15 43/43/36 19/19/16
f 17/17/14 43/43/36 18/18/15
f 40/40/34 43/43/36 17/17/14
f 37/37/32 44/44/31 17/17/14
f 17/17/14 44/44/31 40/40/34
f 42/42/33 45/45/27 46/46/37
f 47/47/38 42/42/33 46/46/37
f 19/19/16 47/47/38 23/23/20
f 47/47/38 19/19/16 43/43/36
f 43/43/36 42/42/33 47/47/38
f 47/47/38 46/46/37 48/48/39
f 23/23/20 47/47/38 48/48/39
f 23/23/20 48/48/39 24/24/21
f 46/46/37 45/45/27 49/49/26
f 50/50/40 46/46/37 49/49/26
f 51/51/41 46/46/37 50/50/40
f 7/7/7 52/52/40 34/34/29
f 29/29/24 52/52/40 7/7/7
f 52/52/40 31/31/26 34/34/29
f 29/29/24 53/53/41 52/52/40
f 30/30/25 53/53/41 29/29/24
